<svg width="247" height="121" viewBox="0 0 247 121" fill="none" xmlns="http://www.w3.org/2000/svg">
<path d="M149.868 30.5433L165.183 59.3608V30.5433H172.569V77.485H166.679L147.693 41.4631V77.485H140.353V30.5433H149.868ZM186.071 77.485H179.456V44.7708H186.071V77.485ZM186.525 41.9162H179.003V34.3947H186.525V41.9162ZM200.072 77.485H193.457V30.5433H200.072V56.9593L209.497 44.7708H217.562L208.092 56.8687L218.106 77.485H210.63L203.471 62.7137L200.072 67.0182V77.485ZM229.298 75.4913L218.333 44.7708H225.718L232.56 64.3902L238.722 44.7708H246.063L235.188 78.4365C234.101 81.8499 233.194 84.0852 232.469 85.1424C231.744 86.2299 231.08 87.0757 230.476 87.6798C229.902 88.3142 229.267 88.8126 228.573 89.1751C226.398 90.3834 223.196 90.6703 218.967 90.036C218.786 90.0058 218.695 89.9907 218.695 89.9907L219.012 83.8284C219.767 84.1607 220.779 84.3269 222.048 84.3269C223.286 84.3269 224.283 84.1607 225.038 83.8284C225.794 83.4962 226.398 83.0733 226.851 82.5597C227.334 82.0462 227.742 81.4723 228.074 80.8379C228.376 80.2338 228.618 79.5995 228.799 78.9349C229.101 77.6964 229.267 76.5485 229.298 75.4913Z" fill="#D35266"/>
<path d="M60.0465 120.093C93.2109 120.093 120.093 93.2109 120.093 60.0465C120.093 26.8821 93.2109 0 60.0465 0C26.8821 0 0 26.8821 0 60.0465C0 93.2109 26.8821 120.093 60.0465 120.093ZM55.6068 24.0974H63.1126V57.4457H96.4647V64.9515H55.6068V24.0974ZM33.2432 25.7374H40.749V79.3402H94.3518V86.846H33.2432V25.7374V25.7374Z" fill="#D35266"/>
</svg>
